<svg id="svg" version="1.1" width="400" height="66.04271658267338" viewBox="0 0 400 66.04271658267338" xmlns="http://www.w3.org/2000/svg" xmlns:xlink="http://www.w3.org/1999/xlink" ><g id="svgg"><path id="path0" d="M96.417 0.386 C 91.909 2.567,92.948 9.273,97.872 9.781 C 103.587 10.371,105.567 3.257,100.500 0.344 C 99.720 -0.105,97.381 -0.080,96.417 0.386 M294.083 0.395 C 290.922 1.881,290.156 5.914,292.565 8.387 C 295.140 11.032,300.003 9.795,300.846 6.281 C 301.839 2.143,297.814 -1.359,294.083 0.395 M50.583 1.300 C 49.398 1.724,48.812 2.227,47.683 3.788 C 47.036 4.684,46.411 5.542,46.295 5.696 C 46.178 5.849,45.971 6.139,45.833 6.340 C 45.696 6.540,45.396 6.950,45.167 7.250 C 44.938 7.550,44.637 7.961,44.500 8.164 C 44.362 8.367,43.075 10.156,41.638 12.141 C 40.201 14.126,38.739 16.148,38.388 16.635 C 38.037 17.122,37.675 17.610,37.583 17.719 C 37.492 17.828,37.192 18.254,36.917 18.667 C 36.642 19.079,36.360 19.492,36.290 19.583 C 35.655 20.417,35.210 21.024,35.000 21.342 C 34.506 22.092,34.166 22.333,33.604 22.333 C 32.555 22.333,32.592 22.643,32.500 13.016 C 32.407 3.211,32.467 3.688,31.167 2.408 C 30.228 1.482,29.582 1.333,26.502 1.333 L 23.667 1.333 23.667 24.583 L 23.667 47.833 26.260 47.833 C 29.349 47.833,30.085 47.678,31.063 46.817 C 32.444 45.601,32.405 45.893,32.499 36.083 C 32.587 27.046,32.597 26.929,33.276 26.758 C 33.991 26.579,34.282 26.801,35.451 28.420 C 39.306 33.760,43.629 39.729,43.781 39.921 C 43.856 40.014,44.177 40.464,44.495 40.921 C 44.813 41.377,45.136 41.825,45.212 41.917 C 45.288 42.008,46.023 43.021,46.845 44.167 C 49.594 48.001,51.242 48.762,53.892 47.422 C 56.516 46.094,56.936 43.040,54.884 40.210 C 54.535 39.729,53.505 38.304,52.595 37.043 C 51.684 35.782,50.897 34.712,50.844 34.667 C 50.792 34.621,50.524 34.246,50.250 33.833 C 49.975 33.421,49.693 33.008,49.623 32.917 C 49.027 32.134,48.543 31.478,48.333 31.167 C 48.196 30.963,47.090 29.437,45.875 27.775 C 43.607 24.673,43.519 24.513,43.875 24.137 C 44.148 23.849,45.289 22.283,45.919 21.333 C 46.193 20.921,46.492 20.499,46.583 20.395 C 46.675 20.292,46.862 20.041,47.000 19.837 C 47.260 19.451,51.889 13.042,52.119 12.750 C 52.191 12.658,52.475 12.246,52.750 11.833 C 53.025 11.421,53.308 11.008,53.380 10.917 C 56.296 7.169,56.800 5.585,55.733 3.529 C 54.800 1.730,52.347 0.668,50.583 1.300 M142.333 22.903 C 142.333 47.153,142.230 45.194,143.580 46.531 C 145.658 48.588,148.796 48.157,150.480 45.583 L 150.917 44.917 151.006 35.667 L 151.095 26.417 151.542 25.554 C 153.172 22.406,156.768 21.691,159.182 24.034 C 160.624 25.433,160.572 25.041,160.667 35.417 C 160.759 45.571,160.718 45.201,161.879 46.393 C 164.111 48.684,167.547 48.175,169.026 45.333 L 169.417 44.583 169.417 35.167 C 169.417 23.273,169.092 21.816,165.594 18.031 C 162.645 14.841,156.391 12.909,153.084 14.166 C 152.773 14.285,152.513 14.255,152.087 14.052 C 151.071 13.567,151.000 13.208,151.000 8.576 C 151.000 2.179,150.313 1.344,145.042 1.337 L 142.333 1.333 142.333 22.903 M178.333 7.071 L 178.333 12.808 177.923 13.296 C 177.563 13.723,177.369 13.796,176.368 13.880 C 171.480 14.290,170.981 21.225,175.802 21.748 C 177.254 21.906,177.497 21.982,177.931 22.416 L 178.333 22.818 178.333 29.308 C 178.333 35.864,178.535 38.325,179.168 39.472 C 179.252 39.625,179.515 40.192,179.753 40.733 C 183.280 48.761,196.333 51.327,196.333 43.993 C 196.333 41.485,194.910 40.090,191.847 39.594 C 187.623 38.911,187.167 37.911,187.167 29.323 C 187.167 21.402,186.973 21.833,190.534 21.833 C 194.518 21.833,196.481 20.036,195.845 16.972 C 195.381 14.739,194.066 13.964,190.525 13.840 L 187.967 13.750 187.579 13.263 C 187.200 12.786,187.190 12.682,187.137 8.596 C 187.077 3.954,187.079 3.960,185.836 2.615 C 184.807 1.501,184.183 1.333,181.062 1.333 L 178.333 1.333 178.333 7.071 M231.167 21.469 L 231.167 41.604 232.542 42.941 C 241.274 51.430,253.174 50.069,257.334 40.104 C 258.802 36.585,258.783 26.213,257.300 22.500 C 256.049 19.367,252.871 15.945,250.459 15.134 C 250.161 15.034,249.842 14.896,249.750 14.828 C 248.762 14.094,243.248 13.605,241.957 14.137 C 241.377 14.376,240.456 13.986,240.183 13.386 C 240.066 13.130,240.000 11.536,240.000 8.998 C 240.000 2.320,239.213 1.333,233.885 1.333 L 231.167 1.333 231.167 21.469 M328.025 1.679 C 325.842 2.648,325.508 3.567,325.504 8.630 C 325.499 13.243,325.414 13.677,324.431 14.088 C 324.016 14.261,323.729 14.286,323.431 14.172 C 322.201 13.704,319.043 13.816,316.933 14.402 C 315.866 14.699,313.167 15.975,313.167 16.183 C 313.167 16.253,313.029 16.355,312.861 16.408 C 311.740 16.764,309.092 20.149,308.097 22.500 C 306.790 25.585,306.722 37.599,307.998 39.973 C 308.080 40.125,308.384 40.737,308.675 41.332 C 313.045 50.287,324.955 50.958,333.125 42.709 L 334.167 41.657 334.167 21.495 L 334.167 1.333 331.458 1.345 C 329.160 1.355,328.640 1.406,328.025 1.679 M210.925 13.184 C 209.114 13.375,207.653 13.834,205.509 14.886 C 200.647 17.274,198.788 24.706,201.832 29.586 C 203.725 32.620,206.132 33.951,211.583 34.977 C 215.042 35.628,215.299 35.701,215.896 36.193 C 217.078 37.168,216.401 38.854,214.626 39.353 C 213.053 39.795,208.659 39.505,206.644 38.826 C 203.345 37.714,200.552 39.356,200.368 42.514 C 200.173 45.851,202.501 47.486,208.448 48.187 C 218.700 49.396,225.157 45.212,225.197 37.333 C 225.227 31.476,221.710 27.891,214.667 26.597 C 210.266 25.789,209.486 25.511,209.185 24.648 C 208.601 22.972,210.335 21.833,213.472 21.833 C 214.934 21.833,218.290 22.264,218.582 22.489 C 218.845 22.692,220.252 23.000,220.917 23.000 C 225.241 23.000,226.856 17.552,223.315 14.911 C 221.637 13.659,215.085 12.746,210.925 13.184 M72.333 13.934 C 70.171 14.194,65.991 15.861,64.902 16.898 C 64.795 17.000,64.536 17.196,64.327 17.333 C 63.695 17.749,62.810 18.521,61.625 19.689 L 60.500 20.799 60.501 32.441 C 60.502 40.349,60.560 44.297,60.684 44.750 C 61.547 47.907,66.076 48.872,68.193 46.351 C 69.349 44.973,69.333 45.143,69.333 34.556 L 69.333 25.028 70.125 24.324 C 73.027 21.743,76.918 22.291,78.399 25.492 C 78.739 26.226,78.753 26.540,78.833 35.417 C 78.917 44.570,78.917 44.584,79.298 45.297 C 81.136 48.740,85.821 48.631,87.323 45.111 C 88.149 43.174,87.758 24.716,86.848 22.750 C 85.980 20.872,85.753 20.405,85.673 20.333 C 85.622 20.287,85.363 19.912,85.098 19.500 C 84.559 18.661,82.420 16.550,81.963 16.405 C 81.800 16.353,81.667 16.256,81.667 16.190 C 81.667 16.123,81.160 15.821,80.542 15.518 C 79.923 15.216,79.300 14.909,79.158 14.837 C 77.914 14.203,74.191 13.711,72.333 13.934 M275.750 13.994 C 271.859 14.629,267.820 16.863,265.016 19.930 L 264.167 20.860 264.167 32.592 L 264.167 44.324 264.573 45.204 C 266.140 48.592,270.770 48.716,272.555 45.417 C 272.909 44.761,272.917 44.594,272.999 35.238 L 273.083 25.726 273.988 24.778 C 275.944 22.729,277.138 22.357,279.666 23.009 L 281.172 23.397 282.302 23.033 C 286.000 21.842,286.551 16.721,283.167 15.003 C 281.514 14.164,277.801 13.659,275.750 13.994 M384.833 13.944 C 383.083 14.184,379.980 15.360,378.892 16.195 C 376.060 18.368,374.152 21.275,373.261 24.774 C 372.882 26.261,372.880 36.454,373.259 38.115 C 373.619 39.697,374.491 41.911,375.011 42.565 C 376.184 44.040,376.868 44.833,376.964 44.834 C 377.030 44.834,377.308 45.028,377.583 45.265 C 381.110 48.310,389.451 49.336,394.417 47.336 C 397.995 45.895,399.336 43.742,398.345 41.031 C 397.422 38.506,394.955 37.606,392.104 38.756 C 387.401 40.652,380.813 38.866,381.994 36.014 C 382.410 35.009,382.313 35.022,389.856 34.965 C 398.093 34.903,398.606 34.763,399.740 32.274 C 400.198 31.268,400.035 25.070,399.507 23.435 C 398.363 19.887,395.271 16.326,392.333 15.173 C 392.012 15.047,391.675 14.890,391.583 14.824 C 390.804 14.263,386.551 13.708,384.833 13.944 M96.616 14.323 C 95.754 14.725,94.874 15.605,94.484 16.455 C 94.171 17.138,94.163 17.607,94.206 31.122 L 94.250 45.083 94.710 45.791 C 96.606 48.707,101.147 48.360,102.520 45.195 C 103.025 44.031,103.004 17.759,102.498 16.578 C 101.570 14.413,98.745 13.329,96.616 14.323 M119.083 14.395 C 114.272 15.690,110.396 19.690,109.293 24.500 C 108.988 25.831,109.000 36.388,109.308 37.732 C 110.797 44.226,116.948 49.095,123.046 48.606 C 123.708 48.553,124.743 48.462,125.345 48.404 C 126.425 48.300,126.447 48.306,126.887 48.829 C 127.644 49.729,127.454 54.087,126.612 55.113 C 125.071 56.992,123.299 57.653,121.333 57.083 C 116.595 55.709,113.121 59.840,115.773 63.695 C 118.058 67.016,127.284 66.666,131.091 63.114 C 133.610 60.763,134.533 59.443,135.381 56.980 C 136.131 54.797,136.167 53.888,136.163 36.921 L 136.160 20.917 135.369 20.083 C 132.406 16.960,129.209 15.089,125.289 14.183 C 123.936 13.871,120.609 13.985,119.083 14.395 M294.170 14.355 C 293.327 14.728,292.521 15.533,292.060 16.459 C 291.739 17.106,291.470 41.186,291.753 43.960 C 292.192 48.246,298.114 49.258,300.028 45.373 L 300.417 44.583 300.417 30.917 C 300.417 15.860,300.466 16.568,299.343 15.364 C 298.097 14.028,295.882 13.595,294.170 14.355 M349.886 14.413 C 345.200 15.709,341.501 19.484,340.346 24.148 C 339.831 26.229,339.823 35.910,340.335 37.968 C 341.700 43.449,345.583 47.283,350.852 48.348 C 352.590 48.700,353.263 48.706,356.278 48.400 C 357.230 48.303,357.342 48.328,357.778 48.733 L 358.250 49.171 358.250 51.377 C 358.250 55.725,355.763 58.088,352.250 57.078 C 347.249 55.641,343.659 60.480,347.039 64.102 C 349.475 66.714,357.631 66.567,361.040 63.849 C 363.483 61.901,364.706 60.513,365.582 58.692 C 367.076 55.588,367.000 56.728,367.000 37.552 L 367.000 20.817 365.958 19.779 C 363.459 17.291,362.044 16.340,358.583 14.823 C 356.569 13.940,352.319 13.740,349.886 14.413 M124.917 23.316 C 125.467 23.576,126.235 24.087,126.625 24.452 L 127.333 25.115 127.333 31.231 L 127.333 37.346 126.708 37.975 C 123.799 40.901,119.305 40.176,118.087 36.583 C 117.654 35.306,117.523 28.363,117.902 26.763 C 118.725 23.287,121.730 21.810,124.917 23.316 M246.863 23.160 C 247.831 23.660,248.111 23.924,248.816 25.000 L 249.417 25.917 249.467 30.949 L 249.518 35.982 249.098 36.866 C 247.477 40.283,243.557 40.764,240.625 37.905 L 240.000 37.295 240.000 31.161 L 240.000 25.026 240.792 24.347 C 242.719 22.694,245.073 22.234,246.863 23.160 M323.072 23.265 C 323.600 23.532,324.363 24.061,324.766 24.442 L 325.500 25.134 325.500 31.211 L 325.500 37.288 325.042 37.747 C 322.135 40.660,317.895 40.301,316.352 37.012 L 315.917 36.083 315.917 31.167 C 315.917 24.887,316.331 23.915,319.500 22.764 C 320.182 22.516,322.129 22.789,323.072 23.265 M355.754 23.262 C 356.215 23.486,356.984 24.012,357.463 24.431 L 358.333 25.193 358.333 31.240 L 358.333 37.288 357.516 38.019 C 356.331 39.079,356.322 39.085,355.277 39.476 C 352.842 40.387,350.363 39.408,349.164 37.062 C 348.534 35.827,348.515 26.702,349.140 25.500 C 350.459 22.962,353.217 22.029,355.754 23.262 M388.644 23.222 C 389.607 23.726,390.130 24.211,390.637 25.071 C 391.313 26.216,391.502 26.167,386.414 26.167 L 381.828 26.167 382.232 25.375 C 383.472 22.950,386.304 21.999,388.644 23.222 " stroke="none" fill="#64646c" fill-rule="evenodd"></path><path id="path1" d="M2.421 1.578 C 0.590 2.530,-0.062 3.664,0.025 5.740 C 0.088 7.229,0.238 7.542,1.998 9.852 C 2.320 10.275,2.696 10.788,2.833 10.993 C 3.224 11.576,4.565 13.407,4.669 13.500 C 4.720 13.546,5.033 13.996,5.364 14.500 C 5.695 15.004,6.180 15.689,6.441 16.023 C 6.703 16.356,7.029 16.794,7.167 16.995 C 7.734 17.826,10.881 22.105,11.123 22.375 C 11.385 22.667,21.595 22.850,21.877 22.568 C 21.931 22.513,21.438 21.732,20.780 20.833 C 20.122 19.933,19.488 19.059,19.372 18.890 C 19.255 18.721,18.505 17.675,17.705 16.565 C 16.905 15.456,15.391 13.356,14.341 11.899 C 11.826 8.411,10.045 5.956,9.878 5.750 C 9.803 5.658,9.239 4.871,8.624 3.999 C 6.714 1.294,4.574 0.458,2.421 1.578 M11.223 26.629 C 11.066 26.728,8.991 29.507,7.833 31.167 C 7.399 31.789,5.517 34.409,5.379 34.583 C 5.307 34.675,4.798 35.369,4.249 36.126 C 3.699 36.882,2.736 38.195,2.107 39.042 C -0.340 42.342,-0.676 44.025,0.711 46.037 C 2.876 49.181,6.164 48.610,9.000 44.600 C 9.688 43.627,11.022 41.764,11.965 40.458 C 12.909 39.152,14.184 37.385,14.799 36.532 C 15.414 35.678,16.182 34.628,16.507 34.198 C 16.832 33.768,17.432 32.929,17.840 32.333 C 18.249 31.738,18.625 31.212,18.677 31.167 C 18.728 31.121,19.138 30.558,19.588 29.917 C 20.037 29.275,20.445 28.712,20.494 28.667 C 20.543 28.621,20.907 28.115,21.302 27.542 L 22.021 26.500 16.719 26.503 C 13.803 26.504,11.329 26.561,11.223 26.629 " stroke="none" fill="#9b1c94" fill-rule="evenodd"></path><path id="path2" d="" stroke="none" fill="#646880" fill-rule="evenodd"></path><path id="path3" d="" stroke="none" fill="#845080" fill-rule="evenodd"></path><path id="path4" d="" stroke="none" fill="#646880" fill-rule="evenodd"></path><path id="path5" d="" stroke="none" fill="#646880" fill-rule="evenodd"></path><path id="path6" d="" stroke="none" fill="#646880" fill-rule="evenodd"></path><path id="path7" d="" stroke="none" fill="#646880" fill-rule="evenodd"></path><path id="path8" d="" stroke="none" fill="#646880" fill-rule="evenodd"></path></g></svg>